<svg xmlns="http://www.w3.org/2000/svg" xml:space="preserve" viewBox="0 0 1200 630" width="1200" height="630" font-family="'JetBrains Mono', ui-monospace, monospace">
  <rect width="1200" height="630" fill="#faf9f6"/>
  <rect x="60" y="50" width="1080" height="470" fill="#111" stroke="#111" stroke-width="3"/>
  <rect x="60" y="50" width="1080" height="44" fill="#2a2a2a"/>
  <circle cx="88" cy="72" r="7" fill="#ff5c00"/><circle cx="112" cy="72" r="7" fill="#888"/><circle cx="136" cy="72" r="7" fill="#888"/>
  <text x="600" y="78" font-size="15" fill="#aaa" text-anchor="middle">ego audit · production · as a senior developer</text>
  <g font-size="19">
    <text x="90" y="138" fill="#888">$ <tspan fill="#faf9f6">audit --ego</tspan></text>
    <g font-weight="800" fill="#ff5c00">
      <text x="90" y="186">FAIL</text><text x="90" y="226">FAIL</text><text x="90" y="266">FAIL</text><text x="90" y="306">FAIL</text><text x="90" y="346">FAIL</text><text x="90" y="386">FAIL</text><text x="90" y="426">FAIL</text>
    </g>
    <g fill="#faf9f6" font-weight="700">
      <text x="180" y="186">pride</text><text x="180" y="226">greed</text><text x="180" y="266">lust</text><text x="180" y="306">envy</text><text x="180" y="346">gluttony</text><text x="180" y="386">wrath</text><text x="180" y="426">sloth</text>
    </g>
    <g fill="#aaa">
      <text x="340" y="186">the god object: "only I understand this module"</text>
      <text x="340" y="226">architectural hoarding</text>
      <text x="340" y="266">hype-cycle thirst: a new framework every sprint</text>
      <text x="340" y="306">the green-grass rewrite</text>
      <text x="340" y="346">dependency bloat</text>
      <text x="340" y="386">the git blame war</text>
      <text x="340" y="426">spiritual dead ends</text>
    </g>
    <text x="90" y="482" fill="#5bd16b">→ <tspan fill="#faf9f6">the final patch: ship the light</tspan></text>
  </g>
  <text x="60" y="570" font-size="24" font-weight="800" fill="#111">Seven deadly sins, read as system failures.</text>
  <text x="60" y="600" font-size="14" fill="#888">moubarak.dev · satire · a low-level audit of your ego</text>
</svg>
